<?xml version="1.0" encoding="UTF-8" standalone="no"?>
<!DOCTYPE svg PUBLIC "-//W3C//DTD SVG 1.1//EN"
 "http://www.w3.org/Graphics/SVG/1.1/DTD/svg11.dtd">
<!-- Generated by graphviz version 9.0.0 (20230911.1827)
 -->
<!-- Pages: 1 -->
<svg width="1350pt" height="238pt"
 viewBox="0.00 0.00 1350.20 238.00" xmlns="http://www.w3.org/2000/svg" xmlns:xlink="http://www.w3.org/1999/xlink">
<g id="graph0" class="graph" transform="scale(1 1) rotate(0) translate(4 234)">
<polygon fill="white" stroke="none" points="-4,4 -4,-234 1346.2,-234 1346.2,4 -4,4"/>
<!-- 2851401756880 -->
<g id="node1" class="node">
<title>2851401756880</title>
<polygon fill="none" stroke="black" points="0,-193.5 0,-229.5 162.5,-229.5 162.5,-193.5 0,-193.5"/>
<text text-anchor="middle" x="40.25" y="-206.2" font-family="Times New Roman,serif" font-size="14.00">data 0.2355</text>
<polyline fill="none" stroke="black" points="80.5,-193.75 80.5,-229.5"/>
<text text-anchor="middle" x="121.5" y="-206.2" font-family="Times New Roman,serif" font-size="14.00">grad 0.0000</text>
</g>
<!-- 2851401746176* -->
<g id="node7" class="node">
<title>2851401746176*</title>
<ellipse fill="none" stroke="black" cx="225.5" cy="-183.5" rx="27" ry="18"/>
<text text-anchor="middle" x="225.5" y="-178.07" font-family="Times New Roman,serif" font-size="14.00">*</text>
</g>
<!-- 2851401756880&#45;&gt;2851401746176* -->
<g id="edge8" class="edge">
<title>2851401756880&#45;&gt;2851401746176*</title>
<path fill="none" stroke="black" d="M162.93,-195.62C171.68,-193.9 180.23,-192.21 188.04,-190.68"/>
<polygon fill="black" stroke="black" points="188.63,-194.13 197.77,-188.76 187.28,-187.26 188.63,-194.13"/>
</g>
<!-- 2851401746656 -->
<g id="node2" class="node">
<title>2851401746656</title>
<polygon fill="none" stroke="black" points="581.5,-55.5 581.5,-91.5 748.5,-91.5 748.5,-55.5 581.5,-55.5"/>
<text text-anchor="middle" x="624" y="-68.2" font-family="Times New Roman,serif" font-size="14.00">data &#45;0.1331</text>
<polyline fill="none" stroke="black" points="666.5,-55.75 666.5,-91.5"/>
<text text-anchor="middle" x="707.5" y="-68.2" font-family="Times New Roman,serif" font-size="14.00">grad 0.0000</text>
</g>
<!-- 2851401756928+ -->
<g id="node5" class="node">
<title>2851401756928+</title>
<ellipse fill="none" stroke="black" cx="811.5" cy="-100.5" rx="27" ry="18"/>
<text text-anchor="middle" x="811.5" y="-95.08" font-family="Times New Roman,serif" font-size="14.00">+</text>
</g>
<!-- 2851401746656&#45;&gt;2851401756928+ -->
<g id="edge10" class="edge">
<title>2851401746656&#45;&gt;2851401756928+</title>
<path fill="none" stroke="black" d="M748.8,-88.97C757.51,-90.6 766.01,-92.19 773.78,-93.64"/>
<polygon fill="black" stroke="black" points="772.99,-97.05 783.46,-95.45 774.27,-90.17 772.99,-97.05"/>
</g>
<!-- 2851401746656* -->
<g id="node3" class="node">
<title>2851401746656*</title>
<ellipse fill="none" stroke="black" cx="518.5" cy="-73.5" rx="27" ry="18"/>
<text text-anchor="middle" x="518.5" y="-68.08" font-family="Times New Roman,serif" font-size="14.00">*</text>
</g>
<!-- 2851401746656*&#45;&gt;2851401746656 -->
<g id="edge1" class="edge">
<title>2851401746656*&#45;&gt;2851401746656</title>
<path fill="none" stroke="black" d="M545.67,-73.5C552.87,-73.5 561.13,-73.5 569.85,-73.5"/>
<polygon fill="black" stroke="black" points="569.6,-77 579.6,-73.5 569.6,-70 569.6,-77"/>
</g>
<!-- 2851401756928 -->
<g id="node4" class="node">
<title>2851401756928</title>
<polygon fill="none" stroke="black" points="874.5,-82.5 874.5,-118.5 1041.5,-118.5 1041.5,-82.5 874.5,-82.5"/>
<text text-anchor="middle" x="917" y="-95.2" font-family="Times New Roman,serif" font-size="14.00">data &#45;0.1659</text>
<polyline fill="none" stroke="black" points="959.5,-82.75 959.5,-118.5"/>
<text text-anchor="middle" x="1000.5" y="-95.2" font-family="Times New Roman,serif" font-size="14.00">grad 0.0000</text>
</g>
<!-- 2851401756976ReLU -->
<g id="node11" class="node">
<title>2851401756976ReLU</title>
<ellipse fill="none" stroke="black" cx="1110.6" cy="-100.5" rx="33.1" ry="18"/>
<text text-anchor="middle" x="1110.6" y="-95.08" font-family="Times New Roman,serif" font-size="14.00">ReLU</text>
</g>
<!-- 2851401756928&#45;&gt;2851401756976ReLU -->
<g id="edge13" class="edge">
<title>2851401756928&#45;&gt;2851401756976ReLU</title>
<path fill="none" stroke="black" d="M1041.79,-100.5C1050.04,-100.5 1058.17,-100.5 1065.78,-100.5"/>
<polygon fill="black" stroke="black" points="1065.74,-104 1075.74,-100.5 1065.74,-97 1065.74,-104"/>
</g>
<!-- 2851401756928+&#45;&gt;2851401756928 -->
<g id="edge2" class="edge">
<title>2851401756928+&#45;&gt;2851401756928</title>
<path fill="none" stroke="black" d="M838.67,-100.5C845.87,-100.5 854.13,-100.5 862.85,-100.5"/>
<polygon fill="black" stroke="black" points="862.6,-104 872.6,-100.5 862.6,-97 862.6,-104"/>
</g>
<!-- 2851401746176 -->
<g id="node6" class="node">
<title>2851401746176</title>
<polygon fill="none" stroke="black" points="290.75,-165.5 290.75,-201.5 453.25,-201.5 453.25,-165.5 290.75,-165.5"/>
<text text-anchor="middle" x="331" y="-178.2" font-family="Times New Roman,serif" font-size="14.00">data 0.2355</text>
<polyline fill="none" stroke="black" points="371.25,-165.75 371.25,-201.5"/>
<text text-anchor="middle" x="412.25" y="-178.2" font-family="Times New Roman,serif" font-size="14.00">grad 0.0000</text>
</g>
<!-- 2851401747712+ -->
<g id="node9" class="node">
<title>2851401747712+</title>
<ellipse fill="none" stroke="black" cx="518.5" cy="-128.5" rx="27" ry="18"/>
<text text-anchor="middle" x="518.5" y="-123.08" font-family="Times New Roman,serif" font-size="14.00">+</text>
</g>
<!-- 2851401746176&#45;&gt;2851401747712+ -->
<g id="edge7" class="edge">
<title>2851401746176&#45;&gt;2851401747712+</title>
<path fill="none" stroke="black" d="M431.87,-165.1C439.86,-162.35 447.91,-159.44 455.5,-156.5 465.42,-152.65 476.04,-148.04 485.63,-143.69"/>
<polygon fill="black" stroke="black" points="486.95,-146.93 494.56,-139.56 484.02,-140.58 486.95,-146.93"/>
</g>
<!-- 2851401746176*&#45;&gt;2851401746176 -->
<g id="edge3" class="edge">
<title>2851401746176*&#45;&gt;2851401746176</title>
<path fill="none" stroke="black" d="M252.67,-183.5C260.44,-183.5 269.44,-183.5 278.93,-183.5"/>
<polygon fill="black" stroke="black" points="278.74,-187 288.74,-183.5 278.74,-180 278.74,-187"/>
</g>
<!-- 2851401747712 -->
<g id="node8" class="node">
<title>2851401747712</title>
<polygon fill="none" stroke="black" points="581.5,-110.5 581.5,-146.5 748.5,-146.5 748.5,-110.5 581.5,-110.5"/>
<text text-anchor="middle" x="624" y="-123.2" font-family="Times New Roman,serif" font-size="14.00">data &#45;0.0328</text>
<polyline fill="none" stroke="black" points="666.5,-110.75 666.5,-146.5"/>
<text text-anchor="middle" x="707.5" y="-123.2" font-family="Times New Roman,serif" font-size="14.00">grad 0.0000</text>
</g>
<!-- 2851401747712&#45;&gt;2851401756928+ -->
<g id="edge9" class="edge">
<title>2851401747712&#45;&gt;2851401756928+</title>
<path fill="none" stroke="black" d="M748.8,-112.46C757.59,-110.75 766.17,-109.09 774.01,-107.57"/>
<polygon fill="black" stroke="black" points="774.61,-111.02 783.76,-105.68 773.28,-104.15 774.61,-111.02"/>
</g>
<!-- 2851401747712+&#45;&gt;2851401747712 -->
<g id="edge4" class="edge">
<title>2851401747712+&#45;&gt;2851401747712</title>
<path fill="none" stroke="black" d="M545.67,-128.5C552.87,-128.5 561.13,-128.5 569.85,-128.5"/>
<polygon fill="black" stroke="black" points="569.6,-132 579.6,-128.5 569.6,-125 569.6,-132"/>
</g>
<!-- 2851401756976 -->
<g id="node10" class="node">
<title>2851401756976</title>
<polygon fill="none" stroke="black" points="1179.7,-82.5 1179.7,-118.5 1342.2,-118.5 1342.2,-82.5 1179.7,-82.5"/>
<text text-anchor="middle" x="1219.95" y="-95.2" font-family="Times New Roman,serif" font-size="14.00">data 0.0000</text>
<polyline fill="none" stroke="black" points="1260.2,-82.75 1260.2,-118.5"/>
<text text-anchor="middle" x="1301.2" y="-95.2" font-family="Times New Roman,serif" font-size="14.00">grad 1.0000</text>
</g>
<!-- 2851401756976ReLU&#45;&gt;2851401756976 -->
<g id="edge5" class="edge">
<title>2851401756976ReLU&#45;&gt;2851401756976</title>
<path fill="none" stroke="black" d="M1144.16,-100.5C1151.51,-100.5 1159.67,-100.5 1168.16,-100.5"/>
<polygon fill="black" stroke="black" points="1167.95,-104 1177.95,-100.5 1167.95,-97 1167.95,-104"/>
</g>
<!-- 2851401746752 -->
<g id="node12" class="node">
<title>2851401746752</title>
<polygon fill="none" stroke="black" points="0,-138.5 0,-174.5 162.5,-174.5 162.5,-138.5 0,-138.5"/>
<text text-anchor="middle" x="40.25" y="-151.2" font-family="Times New Roman,serif" font-size="14.00">data 1.0000</text>
<polyline fill="none" stroke="black" points="80.5,-138.75 80.5,-174.5"/>
<text text-anchor="middle" x="121.5" y="-151.2" font-family="Times New Roman,serif" font-size="14.00">grad 0.0000</text>
</g>
<!-- 2851401746752&#45;&gt;2851401746176* -->
<g id="edge11" class="edge">
<title>2851401746752&#45;&gt;2851401746176*</title>
<path fill="none" stroke="black" d="M162.93,-171.81C171.68,-173.47 180.23,-175.1 188.04,-176.58"/>
<polygon fill="black" stroke="black" points="187.29,-180 197.77,-178.43 188.6,-173.12 187.29,-180"/>
</g>
<!-- 2851401748240 -->
<g id="node13" class="node">
<title>2851401748240</title>
<polygon fill="none" stroke="black" points="288.5,-110.5 288.5,-146.5 455.5,-146.5 455.5,-110.5 288.5,-110.5"/>
<text text-anchor="middle" x="331" y="-123.2" font-family="Times New Roman,serif" font-size="14.00">data &#45;0.2683</text>
<polyline fill="none" stroke="black" points="373.5,-110.75 373.5,-146.5"/>
<text text-anchor="middle" x="414.5" y="-123.2" font-family="Times New Roman,serif" font-size="14.00">grad 0.0000</text>
</g>
<!-- 2851401748240&#45;&gt;2851401747712+ -->
<g id="edge14" class="edge">
<title>2851401748240&#45;&gt;2851401747712+</title>
<path fill="none" stroke="black" d="M455.8,-128.5C464.06,-128.5 472.13,-128.5 479.57,-128.5"/>
<polygon fill="black" stroke="black" points="479.53,-132 489.53,-128.5 479.53,-125 479.53,-132"/>
</g>
<!-- 2851401745216 -->
<g id="node14" class="node">
<title>2851401745216</title>
<polygon fill="none" stroke="black" points="290.75,-55.5 290.75,-91.5 453.25,-91.5 453.25,-55.5 290.75,-55.5"/>
<text text-anchor="middle" x="331" y="-68.2" font-family="Times New Roman,serif" font-size="14.00">data 0.0665</text>
<polyline fill="none" stroke="black" points="371.25,-55.75 371.25,-91.5"/>
<text text-anchor="middle" x="412.25" y="-68.2" font-family="Times New Roman,serif" font-size="14.00">grad 0.0000</text>
</g>
<!-- 2851401745216&#45;&gt;2851401746656* -->
<g id="edge6" class="edge">
<title>2851401745216&#45;&gt;2851401746656*</title>
<path fill="none" stroke="black" d="M453.7,-73.5C462.82,-73.5 471.76,-73.5 479.92,-73.5"/>
<polygon fill="black" stroke="black" points="479.75,-77 489.75,-73.5 479.75,-70 479.75,-77"/>
</g>
<!-- 2851401746272 -->
<g id="node15" class="node">
<title>2851401746272</title>
<polygon fill="none" stroke="black" points="288.5,-0.5 288.5,-36.5 455.5,-36.5 455.5,-0.5 288.5,-0.5"/>
<text text-anchor="middle" x="331" y="-13.2" font-family="Times New Roman,serif" font-size="14.00">data &#45;2.0000</text>
<polyline fill="none" stroke="black" points="373.5,-0.75 373.5,-36.5"/>
<text text-anchor="middle" x="414.5" y="-13.2" font-family="Times New Roman,serif" font-size="14.00">grad 0.0000</text>
</g>
<!-- 2851401746272&#45;&gt;2851401746656* -->
<g id="edge12" class="edge">
<title>2851401746272&#45;&gt;2851401746656*</title>
<path fill="none" stroke="black" d="M429.14,-36.85C438.01,-39.95 447.04,-43.23 455.5,-46.5 465.29,-50.28 475.8,-54.72 485.33,-58.88"/>
<polygon fill="black" stroke="black" points="483.65,-61.97 494.21,-62.81 486.48,-55.56 483.65,-61.97"/>
</g>
</g>
</svg>
